<svg width="18" height="18" viewBox="0 0 18 18" fill="none" xmlns="http://www.w3.org/2000/svg">
<path d="M10.3468 16.7944L9.45497 17.7094C9.07734 18.0969 8.46669 18.0969 8.09307 17.7094L0.283227 9.70071C-0.0944091 9.31326 -0.0944091 8.68674 0.283227 8.30341L8.09307 0.290588C8.47071 -0.0968628 9.08135 -0.0968628 9.45497 0.290588L10.3468 1.20563C10.7285 1.59721 10.7205 2.23609 10.3308 2.61942L5.48979 7.35127H17.0358C17.5701 7.35127 18 7.79231 18 8.34051V9.65949C18 10.2077 17.5701 10.6487 17.0358 10.6487H5.48979L10.3308 15.3806C10.7245 15.7639 10.7325 16.4028 10.3468 16.7944Z" fill="#E478DE"/>
</svg>
