<svg width="88" height="60" viewBox="0 0 88 60" fill="none" xmlns="http://www.w3.org/2000/svg">
<path d="M0 54.1408V5.26133C0 5.20476 0.0848601 4.66731 0.25458 3.64899L29.0222 28.2584L0.339441 55.838C0.113147 55.046 0 54.4802 0 54.1408ZM3.81871 0.25458C4.21472 0.08486 4.6956 0 5.26133 0H82.7387C83.2478 0 83.757 0.08486 84.2662 0.25458L55.4137 24.9489L51.595 28.0039L44.0424 34.1986L36.4899 28.0039L32.6712 24.9489L3.81871 0.25458ZM3.90357 59.1475L32.8409 31.3983L44.0424 40.4783L55.244 31.3983L84.1813 59.1475C83.7287 59.3173 83.2478 59.4021 82.7387 59.4021H5.26133C4.80874 59.4021 4.35616 59.3173 3.90357 59.1475ZM59.0627 28.2584L87.7454 3.64899C87.9151 4.15815 88 4.6956 88 5.26133V54.1408C88 54.6499 87.9151 55.2157 87.7454 55.838L59.0627 28.2584Z" fill="#E478DE"/>
</svg>
