<svg width="17" height="22" viewBox="0 0 17 22" fill="none" xmlns="http://www.w3.org/2000/svg">
<path d="M14.7831 8.38805H14.3119V5.81141C14.3119 2.60689 11.705 0 8.50036 0C5.29606 0 2.68906 2.60689 2.68906 5.81141V8.38805H2.21749C0.99286 8.38805 0 9.3808 0 10.6055V17.4903C0 19.9809 2.01894 22 4.50956 22H12.491C14.9817 22 17.0006 19.9809 17.0006 17.4903V10.6055C17.0006 9.3808 16.0079 8.38805 14.7831 8.38805ZM9.32602 15.2399V18.0408C9.32602 18.4967 8.95631 18.8664 8.50036 18.8664C8.04441 18.8664 7.6747 18.4967 7.6747 18.0408V15.2399C7.04572 14.9333 6.61133 14.2897 6.61133 13.5429C6.61133 12.4996 7.45712 11.6537 8.50036 11.6537C9.54371 11.6537 10.3895 12.4995 10.3895 13.5429C10.3895 14.2897 9.95489 14.9334 9.32602 15.2399ZM12.2102 8.38805H4.79094V5.81141C4.79094 3.76585 6.45502 2.10166 8.50047 2.10166C10.5461 2.10166 12.2102 3.76585 12.2102 5.81141V8.38805Z" fill="#ABABAB"/>
</svg>
